{"title":"The Thief of Bagdad (1940) BRRIP XviD AC3-FWOLF","uid":11285683,"size":1731795443,"categoryP":"video","categoryS":"movies","magnet":"?xt=urn:btih:f7ccf12bcc28952e9a45bde93bf7e6f4c0ddd31c&amp;dn=The+Thief+of+Bagdad+%281940%29+BRRIP+XviD+AC3-FWOLF&amp;tr=udp%3A%2F%2Ftracker.openbittorrent.com%3A80&amp;tr=udp%3A%2F%2Fopen.demonii.com%3A1337&amp;tr=udp%3A%2F%2Ftracker.coppersurfer.tk%3A6969&amp;tr=udp%3A%2F%2Fexodus.desync.com%3A6969","seeders":0,"leechers":1,"uploader":"TvTeam","files":7,"time":1414275373,"description":" &lt;a href=&quot;http://www.torrenting.com&quot; rel=&quot;nofollow&quot; target=&quot;_NEW&quot;&gt;http://www.torrenting.com&lt;/a&gt;\n\nSign up is OPEN - for time being. Come and have fun.\n\n\n....The Thief of Bagdad (1940) BRRIP XviD AC3-FWOLF\n\nimdb.... &lt;a href=&quot;\nhttp://www.imdb.com/title/tt0033152/&quot; rel=&quot;nofollow&quot; target=&quot;_NEW&quot;&gt;\nhttp://www.imdb.com/title/tt0033152/&lt;/a&gt;\n\n\nAfter being tricked and cast out of Bagdad by \nthe evil Jaffar, King Ahmad joins forces with \na thief named Abu to reclaim his throne, the \ncity, and the Princess he loves.\n\n\nDirector: Ludwig Berger, Michael Powell\n\nWriters:  Miles Malleson (screen play and dialogue), Lajos Biro   \n\nStars:    Conrad Veidt, Sabu, June Duprez\n\n\nFormat                                   : AVI\nFormat/Info                              : Audio Video Interleave\nFile size                                : 1.59 GiB\nDuration                                 : 1h 46mn\nOverall bit rate                         : 2 145 Kbps\n\nVideo\nID                                       : 0\nFormat                                   : MPEG-4 Visual\nFormat profile                           : Advanced Simple@L5\nFormat settings, BVOP                    : 2\nFormat settings, QPel                    : Yes\nFormat settings, GMC                     : No warppoints\nFormat settings, Matrix                  : Default (H.263)\nCodec ID                                 : XVID\nCodec ID/Hint                            : XviD\nDuration                                 : 1h 46mn\nBit rate                                 : 1 946 Kbps\nWidth                                    : 704 pixels\nHeight                                   : 512 pixels\nDisplay aspect ratio                     : 1.375\nFrame rate                               : 24.000 fps\nColor space                              : YUV\nChroma subsampling                       : 4:2:0\nBit depth                                : 8 bits\nScan type                                : Progressive\nCompression mode                         : Lossy\nBits/(Pixel*Frame)                       : 0.225\nStream size                              : 1.44 GiB (91%)\nWriting library                          : XviD 1.2.1 (UTC 2008-12-04)\n\nAudio\nID                                       : 1\nFormat                                   : AC-3\nFormat/Info                              : Audio Coding 3\nMode extension                           : CM (complete main)\nFormat settings, Endianness              : Big\nCodec ID                                 : 2000\nDuration                                 : 1h 46mn\nBit rate mode                            : Constant\nBit rate                                 : 192 Kbps\nChannel(s)                               : 2 channels\nChannel(s)_Original                      : 1 channel\nChannel positions                        : Front: C\nSampling rate                            : 48.0 KHz\nBit depth                                : 16 bits\nCompression mode                         : Lossy\nStream size                              : 146 MiB (9%)\nAlignment                                : Aligned on interleaves\nInterleave, duration                     : 64 ms (1.54 video frames)\nInterleave, preload duration             : 192 ms\nTitle                                    : English\n\n\n\n\nEncoded....................FWOLF              \n\nSource.....................720p BluRay x264-VETO 4.37 GB (Thanks!)\n\nSample.....................Yes\n\n\nSubs.......................(srt) English,Greek\n\n\n\n[img]http://s28.postimg.org/5deoof6bx/image.png[/img]\n\n\n\n\n[img]http://s29.postimg.org/x15q2545j/image.png[/img]\n\n\n\n\nGreetz To: PsiX | Blacksheep | CFR | tomcat-12...\n.....and all P2P Encoders and Groups","torrent":{"xt":"urn:btih:f7ccf12bcc28952e9a45bde93bf7e6f4c0ddd31c","amp;dn":"The+Thief+of+Bagdad+%281940%29+BRRIP+XviD+AC3-FWOLF","amp;tr":["udp%3A%2F%2Ftracker.openbittorrent.com%3A80","udp%3A%2F%2Fopen.demonii.com%3A1337","udp%3A%2F%2Ftracker.coppersurfer.tk%3A6969","udp%3A%2F%2Fexodus.desync.com%3A6969"],"infoHash":"f7ccf12bcc28952e9a45bde93bf7e6f4c0ddd31c","infoHashBuffer":{"type":"Buffer","data":[247,204,241,43,204,40,149,46,154,69,189,233,59,247,230,244,192,221,211,28]},"announce":[],"urlList":[]}}